<svg width="1080" height="1080" viewBox="0 0 1080 1080" fill="none" xmlns="http://www.w3.org/2000/svg">
<path d="M299.723 900.528C247.031 900.528 205.931 881.559 176.423 843.621C144.808 805.682 129 754.044 129 688.705C129 591.751 150.077 503.228 192.231 423.136C236.492 343.044 307.1 268.221 404.054 198.667C429.346 179.698 449.369 175.482 464.123 186.021C472.554 192.344 476.769 201.828 476.769 214.474C476.769 225.013 469.392 235.551 454.638 246.09C382.977 307.213 336.608 354.636 315.531 388.359C296.562 419.974 287.077 453.698 287.077 489.528C287.077 527.467 295.508 556.974 312.369 578.051C329.231 597.021 348.2 613.882 369.277 628.636C390.354 641.282 409.323 657.09 426.185 676.059C443.046 695.028 451.477 723.482 451.477 761.421C451.477 799.359 437.777 832.028 410.377 859.428C385.085 886.828 348.2 900.528 299.723 900.528ZM773.954 900.528C721.262 900.528 679.108 881.559 647.492 843.621C617.985 805.682 603.231 754.044 603.231 688.705C603.231 591.751 624.308 503.228 666.462 423.136C710.723 343.044 781.331 268.221 878.285 198.667C903.577 179.698 923.6 175.482 938.354 186.021C946.785 192.344 951 201.828 951 214.474C951 225.013 943.623 235.551 928.869 246.09C857.208 307.213 810.838 354.636 789.761 388.359C770.792 419.974 761.308 453.698 761.308 489.528C761.308 527.467 769.738 556.974 786.6 578.051C803.462 597.021 822.431 613.882 843.508 628.636C864.585 641.282 883.554 657.09 900.415 676.059C917.277 695.028 925.708 723.482 925.708 761.421C925.708 799.359 912.008 832.028 884.608 859.428C859.315 886.828 822.431 900.528 773.954 900.528Z" fill="white"/>
</svg>
